<svg id="Capa_1" enable-background="new 0 0 512 512" height="512" viewBox="0 0 512 512" width="512" xmlns="http://www.w3.org/2000/svg"><g><path d="m480.784 181.85c.688-5.2 1.216-10.459 1.216-15.85 0-90.981-75.019-166-166-166-20.832 0-41.091 4.173-60 11.613-26.75 10.525-50.711 27.795-69.009 50.804-7.28-1.626-14.223-2.417-20.991-2.417-56.382 0-103.524 45.678-105.897 101.488-36.373 17.227-60.103 53.907-60.103 94.512 0 57.891 47.109 105 105 105h151 150c57.891 0 106-47.109 106-105 0-27.817-11.279-54.404-31.216-74.15z" fill="#f3f5f9"/><path d="m512 256c0-27.817-11.279-54.404-31.216-74.15.688-5.2 1.216-10.459 1.216-15.85 0-90.981-75.019-166-166-166-20.832 0-41.091 4.173-60 11.613v349.387h150c57.891 0 106-47.109 106-105z" fill="#e1e6f0"/><g><path d="m361 391h30v60h-30z" fill="#59abff"/></g><g><path d="m421 451h30v61h-30z" fill="#59abff"/></g><g><path d="m301 451h30v61h-30z" fill="#59abff"/></g><g><path d="m121 391h30v60h-30z" fill="#6cf"/></g><g><path d="m181 451h30v61h-30z" fill="#6cf"/></g><g><path d="m61 451h30v61h-30z" fill="#6cf"/></g><path d="m271 305.189v-85.4l-15 15-117.773 117.774 102.773 34.248v85.4l15-15 117.773-117.773z" fill="#ffdf40"/><path d="m271 305.189v-85.4l-15 15v222.422l117.773-117.773z" fill="#ffbe40"/></g></svg>