<svg id="Capa_1" enable-background="new 0 0 503.898 503.898" height="512" viewBox="0 0 503.898 503.898" width="512" xmlns="http://www.w3.org/2000/svg"><g><g><path d="m421.363 166.149c-1.353-60.102-50.494-108.409-110.921-108.409-55.659 0-101.742 40.985-109.725 94.42-2.548-.395-5.157-.603-7.815-.603-27.918 0-50.55 22.632-50.55 50.55 0 2.922.262 5.781.738 8.568h-9.699c-30.284 0-54.834 24.55-54.834 54.834 0 30.284 24.55 54.834 54.834 54.834h248.791c45.324 0 82.067-36.742 82.067-82.067 0-31.135-17.338-58.219-42.886-72.127z" fill="#8bb6ef"/><path d="m421.363 166.149c-1.353-60.102-50.494-108.409-110.921-108.409-6.822 0-13.499.619-19.981 1.798 37.004 7.39 66.053 36.819 72.885 74.021 1.648 8.976 6.487 16.992 13.41 22.937 14.637 12.57 23.909 31.21 23.909 52.017 0 37.852-30.685 68.538-68.538 68.538-1.046 0-207.777 0-207.777 0-19.535 0-36.204-12.237-42.783-29.46-1.988 5.751-3.061 11.929-3.009 18.368.246 30.226 25.324 54.384 55.551 54.384h248.072c45.324 0 82.067-36.742 82.067-82.067.001-31.135-17.337-58.219-42.885-72.127z" fill="#8388ef"/><g><path d="m241.158 155.413c-1.431 0-2.884-.309-4.263-.96-4.994-2.358-7.131-8.318-4.773-13.312 4.372-9.258 10.43-17.55 18.006-24.646 4.03-3.776 10.358-3.569 14.134.462 3.775 4.031 3.569 10.359-.462 14.134-5.648 5.29-10.348 11.718-13.593 18.589-1.706 3.615-5.3 5.733-9.049 5.733z" fill="#fff"/></g><g><path d="m276.937 113.628c-3.903 0-7.61-2.299-9.22-6.121-2.144-5.09.245-10.954 5.334-13.097 1.056-.445 2.125-.87 3.178-1.262 5.175-1.931 10.934.699 12.864 5.874 1.931 5.174-.699 10.934-5.874 12.864-2.018.764-4.111 1.83-6.282 1.742z" fill="#fff"/></g><g><path d="m146.703 414.044c-1.819 0-3.659-.496-5.312-1.535-4.676-2.939-6.084-9.112-3.145-13.788l17.364-27.624c2.94-4.676 9.112-6.084 13.788-3.145s6.083 9.112 3.145 13.788l-17.364 27.624c-1.901 3.023-5.152 4.68-8.476 4.68z" fill="#6280cc"/></g><g><path d="m243.781 414.044c-1.819 0-3.659-.496-5.312-1.535-4.676-2.939-6.084-9.112-3.145-13.788l17.364-27.624c2.941-4.676 9.113-6.084 13.788-3.145 4.676 2.939 6.083 9.112 3.145 13.788l-17.364 27.624c-1.9 3.023-5.151 4.68-8.476 4.68z" fill="#6280cc"/></g><g><path d="m334.546 414.044c-1.819 0-3.659-.496-5.312-1.535-4.676-2.939-6.083-9.112-3.145-13.788l17.363-27.624c2.94-4.676 9.114-6.083 13.788-3.145 4.676 2.939 6.083 9.112 3.145 13.788l-17.363 27.624c-1.9 3.023-5.152 4.68-8.476 4.68z" fill="#6280cc"/></g><g><path d="m170.38 493.492c-1.819 0-3.659-.496-5.312-1.535-4.676-2.939-6.083-9.112-3.145-13.788l17.364-27.624c2.94-4.675 9.112-6.084 13.788-3.145s6.083 9.112 3.145 13.788l-17.364 27.624c-1.9 3.022-5.151 4.68-8.476 4.68z" fill="#6280cc"/></g><g><path d="m261.145 493.492c-1.819 0-3.659-.496-5.313-1.535-4.676-2.939-6.083-9.112-3.145-13.788l17.363-27.624c2.941-4.675 9.113-6.083 13.788-3.145 4.676 2.939 6.083 9.112 3.145 13.788l-17.363 27.624c-1.899 3.022-5.151 4.68-8.475 4.68z" fill="#6280cc"/></g><g><path d="m363.728 203.788c-3.314 0-6-2.686-6-6v-11.331c0-3.313 2.686-6 6-6s6 2.687 6 6v11.331c0 3.313-2.686 6-6 6z" fill="#6280cc"/></g><g><path d="m399.736 244.993c-3.313 0-6-2.687-6-6v-11.331c0-3.313 2.687-6 6-6 3.314 0 6 2.687 6 6v11.331c0 3.314-2.687 6-6 6z" fill="#6280cc"/></g><g><path d="m341.826 262.069c-3.313 0-6-2.687-6-6v-11.331c0-3.313 2.687-6 6-6 3.314 0 6 2.687 6 6v11.331c0 3.314-2.686 6-6 6z" fill="#6280cc"/></g></g><path d="m39.262 86.324 8.214 23.098c.352.989 1.048 1.773 1.927 2.169l20.521 9.246c2.899 1.306 2.899 5.925 0 7.232l-20.521 9.246c-.879.396-1.575 1.18-1.927 2.168l-8.214 23.098c-1.16 3.263-5.265 3.263-6.425 0l-8.214-23.098c-.352-.989-1.048-1.773-1.927-2.168l-20.521-9.246c-2.899-1.306-2.899-5.926 0-7.232l20.521-9.246c.879-.396 1.575-1.18 1.927-2.169l8.214-23.098c1.16-3.264 5.264-3.264 6.425 0z" fill="#b2e7f1"/><path d="m142.893 17.558 6.093 17.133c.261.734.777 1.315 1.429 1.609l15.222 6.858c2.151.969 2.151 4.395 0 5.364l-15.222 6.858c-.652.294-1.168.875-1.429 1.609l-6.093 17.133c-.861 2.421-3.905 2.421-4.766 0l-6.093-17.133c-.261-.734-.777-1.315-1.429-1.609l-15.222-6.858c-2.15-.969-2.15-4.395 0-5.364l15.222-6.858c.652-.294 1.168-.875 1.429-1.609l6.093-17.133c.861-2.421 3.906-2.421 4.766 0z" fill="#b2e7f1"/><g fill="#8bb6ef"><ellipse cx="485.961" cy="29.653" rx="17.937" ry="17.937" transform="matrix(.23 -.973 .973 .23 345.45 495.802)"/><circle cx="50.244" cy="18.144" r="7.737"/></g></g></svg>